PathFileType	3	(X/Y/Z)	running_2__fused_aligned.trc
DataRate	CameraRate	NumFrames	NumMarkers	Units	OrigDataRate	OrigDataStartFrame	OrigNumFrames
100.0	100.0	18	19	mm	100.0	3434	6395
Frame#	Time	pelvis			neck			head			hip_left			hip_right			knee_left			knee_right			ankle_left			ankle_right			heel_left			heel_right			toe_left			toe_right			shoulder_left			shoulder_right			elbow_left			elbow_right			wrist_left			wrist_right			
		X1	Y1	Z1	X2	Y2	Z2	X3	Y3	Z3	X4	Y4	Z4	X5	Y5	Z5	X6	Y6	Z6	X7	Y7	Z7	X8	Y8	Z8	X9	Y9	Z9	X10	Y10	Z10	X11	Y11	Z11	X12	Y12	Z12	X13	Y13	Z13	X14	Y14	Z14	X15	Y15	Z15	X16	Y16	Z16	X17	Y17	Z17	X18	Y18	Z18	X19	Y19	Z19	
3434	34.33000	50.377523	939.480329	184.967825	20.264741	1476.382558	348.833439	16.694132	1548.067866	503.729888	126.342067	942.100597	182.742145	-25.586920	936.860057	187.193567	143.275248	508.541822	191.977669	-49.166390	526.883933	358.040889	120.141129	189.025265	-47.423676	-80.357728	195.901176	195.846693	111.360596	167.983074	-96.432012	-82.910367	165.853942	154.447634	122.483416	50.852891	54.345562	-80.881076	101.471392	326.930405	194.120229	1451.386108	318.387735	-142.708838	1437.193080	281.718479	300.244482	1206.398807	236.969551	-238.356221	1223.013701	122.887569	196.855728	1093.165687	409.795290	-223.737123	1029.497290	281.309622
3435	34.34000	48.963412	938.557455	184.946490	17.892027	1475.349485	348.564030	13.630908	1547.253509	503.468381	124.963280	941.099170	182.777647	-27.036350	936.015746	187.115378	142.407600	507.308790	189.897120	-48.891275	526.027144	361.653434	118.593418	193.397568	-59.383492	-78.348732	191.117967	205.656696	109.612920	174.067941	-109.309672	-80.912513	159.754277	164.827979	121.036127	49.885637	37.527174	-78.416524	100.307451	340.489617	192.139160	1450.555227	319.239192	-144.830272	1435.889206	280.204688	299.560681	1205.451933	238.770316	-240.163096	1222.149490	120.072649	194.540615	1092.511341	411.907384	-228.253397	1025.776279	278.634774
3436	34.35000	47.549301	937.634582	184.925155	15.519313	1474.316411	348.294621	10.567685	1546.439152	503.206874	123.584494	940.097742	182.813149	-28.485780	935.171434	187.037189	141.539953	506.075757	187.816571	-48.616159	525.170355	365.265978	117.045707	197.769871	-71.343307	-76.339736	186.334757	215.466698	107.865244	180.152807	-122.187333	-78.914659	153.654613	175.208324	119.588838	48.918383	20.708785	-75.951972	99.143510	354.048828	190.158092	1449.724346	320.090649	-146.951707	1434.585333	278.690897	298.876880	1204.505058	240.571082	-241.969971	1221.285278	117.257729	192.225501	1091.856996	414.019478	-232.769671	1022.055268	275.959925
3437	34.36000	46.135190	936.711709	184.903820	13.146599	1473.283337	348.025211	7.504462	1545.624794	502.945367	122.205707	939.096315	182.848651	-29.935210	934.327122	186.958999	140.672305	504.842725	185.736022	-48.341043	524.313567	368.878523	115.497996	202.142175	-83.303123	-74.330741	181.551548	225.276701	106.117568	186.237674	-135.064993	-76.916805	147.554948	185.588669	118.141549	47.951128	3.890397	-73.487420	97.979569	367.608040	188.177023	1448.893466	320.942106	-149.073141	1433.281459	277.177106	298.193078	1203.558184	242.371848	-243.776847	1220.421066	114.442809	189.910388	1091.202650	416.131572	-237.285946	1018.334258	273.285077
3438	34.37000	43.676728	937.754998	186.385995	10.315344	1474.473090	349.239942	4.776206	1547.035680	504.049835	119.770958	940.015971	184.527034	-32.417419	935.494043	188.244965	138.573312	505.876146	188.210040	-50.525173	525.143453	366.707272	113.475803	204.895659	-83.115367	-75.076443	177.386697	227.880850	104.127654	189.558940	-135.105708	-77.573279	141.997643	188.391754	115.560646	49.019290	2.346376	-74.406629	96.219754	374.690053	185.181302	1450.464089	321.942153	-151.894412	1434.189309	278.730078	295.017775	1205.927268	242.250098	-245.135193	1220.390799	116.867145	186.882884	1094.312681	416.329834	-236.562748	1019.958184	275.206704
3439	34.38000	41.218265	938.798287	187.868171	7.484088	1475.662843	350.454672	2.047950	1548.446567	505.154302	117.336208	940.935628	186.205418	-34.899629	936.660965	189.530931	136.474319	506.909566	190.684058	-52.709303	525.973339	364.536021	111.453611	207.649143	-82.927611	-75.822145	173.221846	230.485000	102.137740	192.880206	-135.146424	-78.229752	136.440339	191.194839	112.979743	50.087452	0.802354	-75.325838	94.459940	381.772067	182.185580	1452.034713	322.942200	-154.715684	1435.097160	280.283050	291.842472	1208.296353	242.128349	-246.493538	1220.360532	119.291480	183.855380	1097.422711	416.528095	-235.839551	1021.582109	277.128331
3440	34.39000	38.759803	939.841576	189.350346	4.652833	1476.852596	351.669403	-0.680305	1549.857453	506.258769	114.901458	941.855285	187.883802	-37.381839	937.827887	190.816897	134.375326	507.942986	193.158076	-54.893434	526.803225	362.364769	109.431418	210.402627	-82.739855	-76.567847	169.056994	233.089149	100.147825	196.201472	-135.187140	-78.886225	130.883034	193.997924	110.398840	51.155614	-0.741667	-76.245047	92.700126	388.854080	179.189859	1453.605336	323.942247	-157.536955	1436.005011	281.836022	288.667168	1210.665437	242.006599	-247.851884	1220.330265	121.715815	180.827875	1100.532742	416.726356	-235.116353	1023.206035	279.049957
3441	34.40000	36.301340	940.884865	190.832521	1.821577	1478.042349	352.884133	-3.408561	1551.268339	507.363236	112.466708	942.774942	189.562185	-39.864049	938.994808	192.102863	132.276334	508.976407	195.632094	-57.077564	527.633111	360.193518	107.409225	213.156111	-82.552099	-77.313549	164.892143	235.693298	98.157911	199.522738	-135.227855	-79.542699	125.325729	196.801009	107.817938	52.223776	-2.285688	-77.164256	90.940311	395.936094	176.194137	1455.175960	324.942294	-160.358226	1436.912861	283.388994	285.491865	1213.034521	241.884850	-249.210230	1220.299998	124.140150	177.800371	1103.642773	416.924618	-234.393156	1024.829961	280.971584
3442	34.41000	33.842878	941.928154	192.314697	-1.009678	1479.232102	354.098864	-6.136817	1552.679225	508.467704	110.031958	943.694598	191.240569	-42.346259	940.161730	193.388830	130.177341	510.009827	198.106112	-59.261694	528.462998	358.022267	105.387032	215.909595	-82.364343	-78.059251	160.727292	238.297448	96.167997	202.844004	-135.268571	-80.199172	119.768424	199.604094	105.237035	53.291937	-3.829709	-78.083465	89.180497	403.018107	173.198416	1456.746584	325.942341	-163.179497	1437.820712	284.941966	282.316562	1215.403606	241.763101	-250.568576	1220.269731	126.564485	174.772867	1106.752803	417.122879	-233.669958	1026.453887	282.893211
3443	34.42000	31.384415	942.971443	193.796872	-3.840934	1480.421855	355.313594	-8.865073	1554.090111	509.572171	107.597209	944.614255	192.918953	-44.828469	941.328652	194.674796	128.078348	511.043247	200.580130	-61.445825	529.292884	355.851016	103.364839	218.663079	-82.176587	-78.804953	156.562440	240.901597	94.178082	206.165270	-135.309286	-80.855646	114.211119	202.407179	102.656132	54.360099	-5.373730	-79.002674	87.420683	410.100120	170.202694	1458.317207	326.942388	-166.000769	1438.728562	286.494938	279.141258	1217.772690	241.641351	-251.926922	1220.239464	128.988821	171.745363	1109.862834	417.321141	-232.946761	1028.077813	284.814838
3444	34.43000	28.925953	944.014732	195.279048	-6.672189	1481.611608	356.528325	-11.593329	1555.500997	510.676638	105.162459	945.533912	194.597337	-47.310679	942.495574	195.960762	125.979355	512.076668	203.054148	-63.629955	530.122770	353.679765	101.342646	221.416564	-81.988831	-79.550655	152.397589	243.505746	92.188168	209.486536	-135.350002	-81.512119	108.653815	205.210264	100.075229	55.428261	-6.917751	-79.921883	85.660868	417.182134	167.206973	1459.887831	327.942435	-168.822040	1439.636413	288.047909	275.965955	1220.141774	241.519602	-253.285268	1220.209197	131.413156	168.717859	1112.972864	417.519402	-232.223563	1029.701739	286.736464
3445	34.44000	26.467490	945.058021	196.761223	-9.503445	1482.801361	357.743055	-14.321585	1556.911884	511.781105	102.727709	946.453569	196.275720	-49.792888	943.662495	197.246728	123.880362	513.110088	205.528166	-65.814085	530.952656	351.508513	99.320454	224.170048	-81.801075	-80.296357	148.232738	246.109896	90.198254	212.807802	-135.390717	-82.168592	103.096510	208.013349	97.494326	56.496423	-8.461772	-80.841092	83.901054	424.264147	164.211251	1461.458454	328.942482	-171.643311	1440.544263	289.600881	272.790651	1222.510859	241.397852	-254.643614	1220.178929	133.837491	165.690354	1116.082895	417.717664	-231.500366	1031.325664	288.658091
3446	34.45000	24.009028	946.101310	198.243398	-12.334700	1483.991114	358.957786	-17.049841	1558.322770	512.885572	100.292959	947.373226	197.954104	-52.275098	944.829417	198.532694	121.781369	514.143508	208.002184	-67.998216	531.782542	349.337262	97.298261	226.923532	-81.613319	-81.042059	144.067886	248.714045	88.208339	216.129068	-135.431433	-82.825066	97.539205	210.816434	94.913423	57.564584	-10.005793	-81.760301	82.141240	431.346160	161.215530	1463.029078	329.942529	-174.464583	1441.452114	291.153853	269.615348	1224.879943	241.276103	-256.001960	1220.148662	136.261826	162.662850	1119.192925	417.915925	-230.777168	1032.949590	290.579718
3447	34.46000	21.550565	947.144599	199.725574	-15.165956	1485.180867	360.172516	-19.778097	1559.733656	513.990040	97.858209	948.292882	199.632488	-54.757308	945.996339	199.818660	119.682376	515.176929	210.476202	-70.182346	532.612428	347.166011	95.276068	229.677016	-81.425563	-81.787761	139.903035	251.318195	86.218425	219.450334	-135.472149	-83.481539	91.981900	213.619519	92.332521	58.632746	-11.549815	-82.679510	80.381425	438.428174	158.219808	1464.599701	330.942576	-177.285854	1442.359965	292.706825	266.440045	1227.249027	241.154354	-257.360306	1220.118395	138.686161	159.635346	1122.302956	418.114186	-230.053970	1034.573516	292.501344
3448	34.47000	19.747800	948.291997	201.706261	-16.481773	1486.570366	361.531865	-20.434267	1561.373859	515.111033	96.072062	949.356989	201.644805	-56.576664	947.227031	201.767701	118.359996	516.933231	216.682906	-72.690368	532.661193	341.683734	94.741079	230.111615	-70.483632	-83.799021	139.150512	244.657831	85.855940	219.499187	-124.073999	-85.368558	91.350415	206.805634	91.199783	60.638727	0.091064	-84.549864	78.778517	431.088340	155.987064	1466.422523	330.644096	-178.647275	1443.375986	295.774244	263.727806	1231.054777	237.313751	-258.446944	1219.773170	144.933854	160.381455	1124.644230	413.614505	-227.296100	1039.069668	299.663897
3449	34.48000	17.945035	949.439395	203.686949	-17.797591	1487.959866	362.891214	-21.090436	1563.014061	516.232026	94.285915	950.421095	203.657121	-58.396019	948.457723	203.716743	117.037616	518.689534	222.889609	-75.198389	532.709958	336.201456	94.206089	230.546214	-59.541700	-85.810281	138.397989	237.997467	85.493454	219.548041	-112.675850	-87.255576	90.718930	199.991750	90.067046	62.644707	11.731943	-86.420219	77.175609	423.748506	153.754320	1468.245345	330.345617	-180.008696	1444.392008	298.841663	261.015566	1234.860526	233.473148	-259.533581	1219.427944	151.181547	161.127565	1126.985504	409.114823	-224.538230	1043.565819	306.826450
3450	34.49000	16.142269	950.586793	205.667637	-19.113409	1489.349365	364.250563	-21.746606	1564.654264	517.353020	92.499767	951.485201	205.669438	-60.215375	949.688415	205.665784	115.715236	520.445836	229.096313	-77.706411	532.758723	330.719179	93.671099	230.980813	-48.599769	-87.821541	137.645467	231.337103	85.130969	219.596895	-101.277700	-89.142595	90.087445	193.177865	88.934309	64.650688	23.372822	-88.290573	75.572700	416.408672	151.521577	1470.068167	330.047137	-181.370118	1445.408030	301.909083	258.303327	1238.666276	229.632545	-260.620219	1219.082719	157.429239	161.873674	1129.326779	404.615142	-221.780359	1048.061971	313.989003
3451	34.50000	14.339504	951.734192	207.648324	-20.429226	1490.738865	365.609912	-22.402776	1566.294467	518.474013	90.713620	952.549307	207.681755	-62.034730	950.919107	207.614825	114.392856	522.202138	235.303016	-80.214433	532.807488	325.236901	93.136110	231.415413	-37.657838	-89.832801	136.892944	224.676739	84.768483	219.645748	-89.879551	-91.029614	89.455960	186.363981	87.801572	66.656669	35.013701	-90.160927	73.969792	409.068838	149.288833	1471.890989	329.748658	-182.731539	1446.424052	304.976502	255.591088	1242.472025	225.791942	-261.706857	1218.737493	163.676932	162.619784	1131.668053	400.115460	-219.022489	1052.558122	321.151556
